<svg width="113" height="113" viewBox="0 0 113 113" fill="none" xmlns="http://www.w3.org/2000/svg">
<rect x="11.7427" y="12.688" width="88.5078" height="88.5078" rx="21.5" fill="#05898F" fill-opacity="0.9" stroke="#05898F"/>
<path d="M6.32708 45.5824C3.18236 33.8462 10.1472 21.7827 21.8834 18.638L67.5032 6.41423C79.2394 3.26951 91.3029 10.2343 94.4476 21.9706L106.671 67.5903C109.816 79.3266 102.851 91.39 91.115 94.5348L45.4953 106.759C33.759 109.903 21.6956 102.938 18.5509 91.2022L6.32708 45.5824Z" fill="#05898F" fill-opacity="0.6"/>
<path d="M47.2717 35.0936C49.2543 36.2864 54.6976 39.4384 53.6665 42.9181C52.9252 45.4202 50.3371 46.2014 48.7691 45.4958C47.4263 44.8916 44.7768 43.4939 41.9384 42.016C39.3282 40.657 36.5254 39.1806 35.1077 37.8918C32.2771 35.3186 34.2055 32.4788 34.4633 31.9632C34.7211 31.4477 37.8142 27.4525 42.325 30.4168M36.0099 62.2503C33.9478 63.2814 32.7878 63.7969 31.7568 64.6991C30.7258 65.6012 30.0998 66.3745 28.9214 68.4366C27.863 70.2889 26.8593 72.303 24.1528 75.7828C24.1528 84.1601 35.8294 90.5525 43.8716 87.7686C45.6759 84.5466 49.5424 78.4891 50.4445 77.587C51.3467 76.685 52.7644 74.1965 55.5998 75.3961C56.5234 75.7869 57.7082 75.74 58.9507 75.4528M60.6261 29.6435C62.3657 28.4389 64.852 26.9803 66.0595 26.4628C67.8638 25.7402 72.2601 25.3574 72.8902 30.0829C73.4057 33.9494 70.0344 34.9802 67.199 37.3C69.7767 35.7534 70.0818 35.0595 72.2254 34.5935C75.1896 33.9491 78.1655 37.2297 76.2701 40.3932C75.1544 42.2044 72.8698 43.4863 71.9676 44.3475C73.2564 43.4863 73.5092 42.9322 75.1896 42.713C78.1539 42.3264 81.247 45.4195 78.7372 49.2859C77.964 50.4769 76.0918 51.6058 74.5452 53.0235C76.4785 51.7347 76.994 50.9528 78.025 50.5747C81.247 49.3933 85.3712 52.5079 82.7936 57.4054C82.251 58.4365 79.9582 60.6385 77.8961 62.5197M60.6261 29.6435C59.7662 30.2389 58.1501 31.3371 57.7907 31.5767C55.7633 32.9283 52.5811 35.408 50.8312 35.7009C49.0812 35.9937 44.6148 34.251 42.9694 32.8655C40.5207 30.8034 43.2907 29.668 44.3871 29.2568C46.4492 28.4835 50.0579 26.8081 53.6665 26.0348C56.3128 25.4677 59.4662 28.1997 60.6261 29.6435ZM58.9507 75.4528C61.3141 74.9064 63.8861 73.4899 65.2658 72.5607C69.3103 69.8369 74.1969 65.8944 77.8961 62.5197M58.9507 75.4528C60.1965 76.465 63.513 80.371 66.8124 87.8976C73.1276 90.8619 87.4333 84.6756 87.0467 74.3651C83.3091 70.3698 80.1883 66.3861 77.8961 62.5197" stroke="#F5F5FA" stroke-width="2.5" stroke-linejoin="round"/>
<path d="M36.2658 38.7941C34.8481 38.2786 32.0129 38.4074 30.8536 40.985C29.4351 44.1389 32.7341 46.3751 33.689 46.7847C34.5903 47.1713 44.5141 51.0378 47.0918 51.9399C48.6383 52.3266 50.4012 51.9399 51.0879 49.8778C51.8604 47.558 49.4546 45.7966 48.5095 45.367" stroke="#F5F5FA" stroke-width="2.5" stroke-linejoin="round"/>
<path d="M33.6902 46.7852C32.1436 46.3985 30.2881 47.3007 29.5663 49.3628C28.6642 51.9404 30.0816 53.6159 32.015 54.3892M32.015 54.3892C32.8728 54.7323 35.8872 55.5034 38.8454 56.3223C39.6861 56.5551 40.7693 56.8653 41.5517 57.0956M32.015 54.3892C30.812 54.6899 28.4319 55.9873 28.535 58.7711C28.6381 61.5549 31.7569 62.5086 33.3034 62.6375C36.1387 62.6375 37.2987 61.7096 38.8454 60.5754C40.134 59.6306 41.1651 57.9342 41.5517 57.0956M46.0628 51.5538C48.2538 52.3271 49.5426 54.2603 48.5117 56.4513C47.5805 58.4305 45.3754 58.0838 44.3873 57.8689C43.5096 57.6786 42.7064 57.4356 41.5517 57.0956" stroke="#F5F5FA" stroke-width="2.5" stroke-linejoin="round"/>
</svg>
