<svg width="124" height="148" viewBox="0 0 124 148" fill="none" xmlns="http://www.w3.org/2000/svg">
<g clip-path="url(#clip0_35_5279)">
<path d="M99.4536 51.1372H87.2202V47.1179C87.2202 40.3808 92.7018 34.9111 99.4536 34.9111L99.4536 51.1372Z" fill="#2F2E41"/>
<path d="M96.7417 43.634L98.845 53.074L86.5195 51.0318L91.5422 42.1039L96.7417 43.634Z" fill="#FFB6B6"/>
<path opacity="0.1" d="M96.7417 43.634L98.845 53.074L86.5195 51.0318L91.5422 42.1039L96.7417 43.634Z" fill="black"/>
<path d="M84.9247 81.2509H96.7417V63.7998H84.9247V81.2509Z" fill="#FFB6B6"/>
<path d="M104.423 95.5183L101.823 109.432C101.823 109.432 103.478 119.101 98.5145 129.006L95.2058 139.146L90.2427 138.439C90.2427 138.439 93.3151 130.892 93.3151 127.591C93.3151 124.289 94.0241 111.554 94.0241 111.554L93.6696 97.0233L104.423 95.5183Z" fill="#2F2E41"/>
<path d="M89.5333 138.203C89.5333 138.203 95.2054 136.08 95.6781 139.146L95.4418 140.561C95.4418 140.561 97.5688 146.928 94.4964 147.4C91.424 147.872 88.5879 148.579 88.3516 147.164C88.1153 145.749 88.119 143.983 88.708 142.744C89.297 141.504 89.5333 138.203 89.5333 138.203Z" fill="#2F2E41"/>
<path d="M86.532 93.36L85.1512 107.446C85.1512 107.446 80.8672 116.275 82.874 127.166L83.2259 137.824L88.1904 138.522C88.1904 138.522 87.3425 130.421 88.2627 127.249C89.1829 124.078 92.0511 111.649 92.0511 111.649L96.4417 97.7898L86.532 93.36Z" fill="#2F2E41"/>
<path d="M88.9372 138.492C88.9372 138.492 84.0804 134.88 82.7719 137.693L82.6046 139.118C82.6046 139.118 78.7868 144.644 81.6065 145.949C84.4263 147.255 86.9533 148.722 87.5746 147.428C88.196 146.135 88.6847 144.437 88.4644 143.083C88.2441 141.729 88.9372 138.492 88.9372 138.492Z" fill="#2F2E41"/>
<path d="M101.587 73.2328C107.145 78.4086 107.558 86.5978 104.305 96.3437C104.305 96.3437 93.9058 103.418 86.3429 94.4571L82.5615 76.2985L101.587 73.2328Z" fill="#2F2E41"/>
<path d="M92.2512 47.9995L98.1597 48.9428L97.687 63.7998L104.304 77.006L95.7963 81.2509C95.7963 81.2509 89.1788 68.7521 87.9971 60.9699C86.8154 53.1876 87.5244 47.5278 87.5244 47.5278L92.2512 47.9995Z" fill="#6C63FF"/>
<path d="M87.7611 48.4712L81.8526 49.4145L82.3253 64.2715L80.9072 77.9493L84.216 81.7225C84.216 81.7225 90.8335 69.2238 92.0152 61.4416C93.1969 53.6593 92.4878 47.9995 92.4878 47.9995L87.7611 48.4712Z" fill="#6C63FF"/>
<path d="M94.8512 48.8249L96.151 48.4711C96.151 48.4711 100.76 47.8816 101.469 49.7682C102.178 51.6548 101.941 62.7386 101.941 62.7386C101.941 62.7386 103.161 76.3422 98.4151 76.4972C93.6695 76.6523 94.6148 65.3326 94.6148 65.3326L94.8512 48.8249Z" fill="#6C63FF"/>
<path d="M94.6792 46.2246C98.0573 46.2246 100.796 43.492 100.796 40.1212C100.796 36.7504 98.0573 34.0178 94.6792 34.0178C91.301 34.0178 88.5625 36.7504 88.5625 40.1212C88.5625 43.492 91.301 46.2246 94.6792 46.2246Z" fill="#FFB6B6"/>
<path d="M87.052 49.2965L85.7521 48.9428C85.7521 48.9428 81.1435 48.3532 80.4345 50.2398C79.7255 52.1264 79.9618 63.2102 79.9618 63.2102C79.9618 63.2102 78.7423 76.8138 83.488 76.9689C88.2337 77.1239 87.2883 65.8043 87.2883 65.8043L87.052 49.2965Z" fill="#05898F"/>
<path d="M91.146 48.5212C89.8338 48.189 88.3461 49.5875 87.8228 51.6456C87.6024 52.4648 87.5819 53.3248 87.7629 54.1537L87.199 56.4931L87.1576 56.491L82.7101 66.9495C81.676 69.3813 81.7853 72.173 83.1042 74.4634C83.8888 75.8259 84.9188 76.7419 86.1282 75.8069C88.1349 74.2554 89.4456 65.3718 90.0441 60.2688L91.4278 55.0816C91.9833 54.439 92.3764 53.6731 92.5742 52.8478C93.0977 50.7905 92.4582 48.8534 91.146 48.5212Z" fill="#FFB6B6"/>
<path d="M82.9689 45.059C83.28 44.115 83.8942 43.2886 84.169 42.3334C84.5339 41.0652 85.3107 43.8786 85.3865 42.5614C85.5305 40.0577 89.36 33.6174 91.5462 32.3804C93.7324 31.1433 94.9881 31.5162 97.2153 32.6781C97.2153 32.6781 98.2965 32.7467 99.6425 33.4098C100.989 34.0728 102.2 35.1348 102.724 36.5386C103.139 37.6513 103.093 38.8732 103.231 40.0524C103.618 43.3374 105.463 46.4616 105.067 49.7455C104.943 50.77 104.553 51.8295 103.714 52.4321C102.874 53.0347 101.518 52.9692 100.965 52.0969C100.777 51.7992 100.697 51.4461 100.535 51.133C100.374 50.82 100.082 50.5282 99.7288 50.5379C99.1985 50.5525 98.9286 51.2625 99.1377 51.7489C99.3468 52.2354 99.8382 52.5291 100.3 52.7903C99.2008 53.2836 97.8378 53.13 96.8769 52.4047C95.9161 51.6793 95.3972 50.4123 95.574 49.2231C95.8232 47.5473 98.2698 47.8942 98.558 46.2246C98.7678 45.0093 99.5047 42.9756 99.304 41.7587C99.1033 40.5418 98.1394 42.0153 99.1548 41.3121C98.0377 41.8495 95.6481 38.1734 94.4787 37.7616C93.3092 37.3498 92.3176 36.4583 91.7858 35.3403C90.5454 37.1346 89.4543 36.6473 89.01 38.7815C88.5658 40.9156 88.9765 45.7642 90.8057 46.9557C90.0737 47.4541 89.4901 48.1668 89.1466 48.982C88.9521 49.4437 88.8259 49.949 88.5029 50.3326C87.8861 51.0651 86.7472 51.1096 85.8393 50.8016C84.7137 50.4197 83.7512 49.581 83.2206 48.5193C82.6899 47.4577 82.5974 46.1859 82.9689 45.059Z" fill="#2F2E41"/>
<path d="M0 147.659C0 147.814 0.125267 147.939 0.281258 147.939H123.719C123.875 147.939 124 147.814 124 147.659C124 147.503 123.875 147.378 123.719 147.378H0.281258C0.125267 147.378 0 147.503 0 147.659Z" fill="#3F3D56"/>
<path d="M80.364 0.23584H31.7565C26.2443 0.23584 21.7759 4.69459 21.7759 10.1947V137.643C21.7759 143.143 26.2443 147.601 31.7564 147.601H80.364C85.8762 147.601 90.3446 143.143 90.3446 137.642V10.1947C90.3446 4.69459 85.8762 0.23584 80.364 0.23584Z" fill="white"/>
<path d="M80.3641 147.837H31.7565C26.1229 147.837 21.5396 143.264 21.5396 137.642V10.1947C21.5396 4.57338 26.1229 0 31.7565 0H80.3641C85.9977 0 90.581 4.57338 90.581 10.1947V137.642C90.581 143.264 85.9977 147.837 80.3641 147.837ZM31.7565 0.471651C26.3835 0.471651 22.0122 4.83338 22.0122 10.1947V137.642C22.0122 143.004 26.3835 147.365 31.7565 147.365H80.3641C85.7371 147.365 90.1083 143.004 90.1083 137.642V10.1947C90.1083 4.83338 85.7371 0.471651 80.3641 0.471651H31.7565Z" fill="#3F3D56"/>
<path d="M17.7591 22.3011C17.3324 22.3011 16.9854 22.6474 16.9854 23.0732V29.2498C16.9854 29.6756 17.3324 30.0219 17.7591 30.0219C18.1858 30.0219 18.5329 29.6756 18.5329 29.2498V23.0732C18.5329 22.6474 18.1858 22.3011 17.7591 22.3011Z" fill="#3F3D56"/>
<path d="M83.8853 20.6256H64.3476C63.5189 20.6256 62.8447 19.9529 62.8447 19.126C62.8447 18.2991 63.5189 17.6263 64.3476 17.6263H83.8853C84.7139 17.6263 85.3882 18.2991 85.3882 19.126C85.3882 19.9529 84.7139 20.6256 83.8853 20.6256Z" fill="#E6E6E6"/>
<path d="M65.5562 32.4186H46.5647C46.0859 32.4186 45.6963 32.0299 45.6963 31.5521C45.6963 31.0743 46.0859 30.6858 46.5647 30.6858H65.5562C66.035 30.6858 66.4244 31.0744 66.4244 31.5521C66.4244 32.0299 66.035 32.4186 65.5562 32.4186Z" fill="#05898F"/>
<path d="M18.5105 36.6948C26.9816 36.6948 33.8487 29.987 33.8487 21.7125C33.8487 13.4379 26.9816 6.7301 18.5105 6.7301C10.0395 6.7301 3.17236 13.4379 3.17236 21.7125C3.17236 29.987 10.0395 36.6948 18.5105 36.6948Z" fill="#05898F"/>
<path d="M23.7163 14.1552C21.6743 17.8654 19.6323 21.5755 17.5903 25.2857C16.2889 22.9912 14.9946 20.6927 13.6899 18.4001C13.2394 17.6082 12.0138 18.3204 12.4655 19.1142C13.9779 21.7719 15.4746 24.4385 16.9869 27.0962C17.2455 27.5506 17.9554 27.5612 18.2114 27.0962C20.4545 23.0206 22.6976 18.945 24.9408 14.8693C25.3803 14.0707 24.1562 13.356 23.7163 14.1552Z" fill="white"/>
<path d="M38.7134 3.45667H27.8707C27.8302 3.45667 27.7974 3.48942 27.7974 3.52982V4.78933C27.7974 4.82974 27.8302 4.86249 27.8707 4.86249H38.7134C38.7538 4.86249 38.7867 4.82974 38.7867 4.78933V3.52982C38.7867 3.48942 38.7538 3.45667 38.7134 3.45667Z" fill="#E6E6E6"/>
<path d="M75.235 4.86248C75.8575 4.86248 76.3621 4.35895 76.3621 3.73782C76.3621 3.11669 75.8575 2.61316 75.235 2.61316C74.6125 2.61316 74.1079 3.11669 74.1079 3.73782C74.1079 4.35895 74.6125 4.86248 75.235 4.86248Z" fill="#E6E6E6"/>
<path d="M78.3346 4.86248C78.9571 4.86248 79.4617 4.35895 79.4617 3.73782C79.4617 3.11669 78.9571 2.61316 78.3346 2.61316C77.7121 2.61316 77.2075 3.11669 77.2075 3.73782C77.2075 4.35895 77.7121 4.86248 78.3346 4.86248Z" fill="#E6E6E6"/>
<path d="M81.4342 4.86248C82.0567 4.86248 82.5613 4.35895 82.5613 3.73782C82.5613 3.11669 82.0567 2.61316 81.4342 2.61316C80.8117 2.61316 80.3071 3.11669 80.3071 3.73782C80.3071 4.35895 80.8117 4.86248 81.4342 4.86248Z" fill="#E6E6E6"/>
<path d="M31.6382 37.0566C31.6382 37.2123 31.7635 37.3373 31.9194 37.3373H80.2011C80.3571 37.3373 80.4824 37.2123 80.4824 37.0566C80.4824 36.901 80.3571 36.776 80.2011 36.776H31.9194C31.7635 36.776 31.6382 36.901 31.6382 37.0566Z" fill="#3F3D56"/>
<path d="M75.5711 59.1135H46.5964C46.1176 59.1135 45.728 58.7248 45.728 58.247C45.728 57.7693 46.1176 57.3807 46.5964 57.3807H75.5711C76.0499 57.3807 76.4393 57.7693 76.4393 58.247C76.4393 58.7248 76.0499 59.1135 75.5711 59.1135Z" fill="#05898F"/>
<path d="M75.5711 71.6123H46.5964C46.1176 71.6123 45.728 71.2236 45.728 70.7458C45.728 70.2681 46.1176 69.8795 46.5964 69.8795H75.5711C76.0499 69.8795 76.4393 70.2681 76.4393 70.7458C76.4393 71.2236 76.0499 71.6123 75.5711 71.6123Z" fill="#05898F"/>
<path d="M75.5711 84.111H46.5964C46.1176 84.111 45.728 83.7222 45.728 83.2445C45.728 82.7667 46.1176 82.3782 46.5964 82.3782H75.5711C76.0499 82.3782 76.4393 82.7667 76.4393 83.2445C76.4393 83.7222 76.0499 84.111 75.5711 84.111Z" fill="#05898F"/>
<path d="M37.8082 60.2624C38.9829 60.2624 39.9353 59.3122 39.9353 58.14C39.9353 56.9678 38.9829 56.0176 37.8082 56.0176C36.6335 56.0176 35.6812 56.9678 35.6812 58.14C35.6812 59.3122 36.6335 60.2624 37.8082 60.2624Z" fill="#05898F"/>
<path d="M37.5718 61.6774V61.2058C39.331 61.2058 40.7624 59.7776 40.7624 58.0221C40.7624 56.2667 39.331 54.8385 37.5718 54.8385V54.3668C39.5917 54.3668 41.235 56.0065 41.235 58.0221C41.235 60.0377 39.5917 61.6774 37.5718 61.6774Z" fill="#3F3D56"/>
<path d="M37.8082 72.7612C38.9829 72.7612 39.9353 71.811 39.9353 70.6388C39.9353 69.4666 38.9829 68.5164 37.8082 68.5164C36.6335 68.5164 35.6812 69.4666 35.6812 70.6388C35.6812 71.811 36.6335 72.7612 37.8082 72.7612Z" fill="#05898F"/>
<path d="M37.5718 74.1762V73.7045C39.331 73.7045 40.7624 72.2765 40.7624 70.5209C40.7624 68.7654 39.331 67.3373 37.5718 67.3373V66.8656C39.5917 66.8656 41.235 68.5053 41.235 70.5209C41.235 72.5365 39.5917 74.1762 37.5718 74.1762Z" fill="#3F3D56"/>
<path d="M37.8082 85.26C38.9829 85.26 39.9353 84.3097 39.9353 83.1376C39.9353 81.9654 38.9829 81.0151 37.8082 81.0151C36.6335 81.0151 35.6812 81.9654 35.6812 83.1376C35.6812 84.3097 36.6335 85.26 37.8082 85.26Z" fill="#05898F"/>
<path d="M37.5718 86.6748V86.2032C39.331 86.2032 40.7624 84.7751 40.7624 83.0196C40.7624 81.264 39.331 79.8359 37.5718 79.8359V79.3643C39.5917 79.3643 41.235 81.004 41.235 83.0196C41.235 85.0351 39.5917 86.6748 37.5718 86.6748Z" fill="#3F3D56"/>
<path d="M90.757 48.0495C92.0692 47.7174 93.5568 49.1158 94.0802 51.1739C94.3006 51.9932 94.3211 52.8532 94.1401 53.682L94.7039 56.0215L94.7454 56.0193L99.1929 66.4779C100.227 68.9096 100.118 71.7013 98.7988 73.9917C98.0141 75.3542 96.9842 76.2702 95.7748 75.3352C93.7681 73.7837 92.4574 64.9001 91.8589 59.7971L90.4751 54.6099C89.9197 53.9673 89.5266 53.2014 89.3287 52.3762C88.8053 50.3189 89.4448 48.3818 90.757 48.0495Z" fill="#FFB6B6"/>
<path d="M95.8093 53.7806L90.8335 57.31L93.3214 72.9438L96.4417 76.9705L100.076 75.7161L101.139 68.3257L99.8886 61.1785L95.8093 53.7806Z" fill="#6C63FF"/>
</g>
<defs>
<clipPath id="clip0_35_5279">
<rect width="124" height="148" fill="white"/>
</clipPath>
</defs>
</svg>
