<svg width="148" height="132" viewBox="0 0 148 132" fill="none" xmlns="http://www.w3.org/2000/svg">
<g clip-path="url(#clip0_35_5033)">
<path d="M39.9953 12.1702C40.5951 10.6569 41.8883 9.75972 42.8828 10.1647C43.8773 10.5698 44.1979 12.1267 43.5981 13.6401C43.367 14.2476 42.9897 14.7876 42.4946 15.2144L39.8688 21.5903L36.8003 20.2206L39.714 14.0799C39.6485 13.4245 39.7445 12.7691 39.9931 12.1681L39.9953 12.1702Z" fill="#A0616A"/>
<path d="M28.993 52.8749C28.993 52.8749 24.5897 50.7453 24.8951 49.2166C25.2004 47.6858 38.3185 15.0859 38.3185 15.0859L44.3923 19.0708L28.993 52.8771V52.8749Z" fill="#E6E6E6"/>
<path d="M95.0346 132H52.9171C46.791 132 41.8076 127.024 41.8076 120.908V11.0924C41.8076 4.97567 46.791 0 52.9171 0H95.0346C101.161 0 106.144 4.97567 106.144 11.0924V120.908C106.144 127.024 101.161 132 95.0346 132Z" fill="#D7D7D8"/>
<path d="M95.0653 128.997H52.8868C48.3527 128.997 44.6626 125.313 44.6626 120.786V10.9987C44.6626 6.47162 48.3527 2.78723 52.8868 2.78723H95.0653C99.5994 2.78723 103.289 6.47162 103.289 10.9987V120.786C103.289 125.313 99.5994 128.997 95.0653 128.997Z" fill="white"/>
<path d="M79.9408 10.0951H68.0135C66.4389 10.0951 65.1587 8.81686 65.1587 7.24468C65.1587 5.6725 66.4389 4.39429 68.0135 4.39429H79.9408C81.5154 4.39429 82.7956 5.6725 82.7956 7.24468C82.7956 8.81686 81.5154 10.0951 79.9408 10.0951Z" fill="#D7D7D8"/>
<path d="M93.9113 43.9404H54.0424C52.2381 43.9404 50.7754 45.4004 50.7754 47.2013C50.7754 49.0022 52.2381 50.4621 54.0424 50.4621H93.9113C95.7156 50.4621 97.1783 49.0022 97.1783 47.2013C97.1783 45.4004 95.7156 43.9404 93.9113 43.9404Z" fill="#05898F"/>
<path d="M65.5012 38.5206H52.309C51.9946 38.5206 51.7397 38.7751 51.7397 39.089C51.7397 39.4029 51.9946 39.6573 52.309 39.6573H65.5012C65.8156 39.6573 66.0704 39.4029 66.0704 39.089C66.0704 38.7751 65.8156 38.5206 65.5012 38.5206Z" fill="#05898F"/>
<path d="M93.9113 66.0186H54.0424C52.2381 66.0186 50.7754 67.4785 50.7754 69.2794C50.7754 71.0803 52.2381 72.5403 54.0424 72.5403H93.9113C95.7156 72.5403 97.1783 71.0803 97.1783 69.2794C97.1783 67.4785 95.7156 66.0186 93.9113 66.0186Z" fill="#D7D7D8"/>
<path d="M65.5012 60.5964H52.309C51.9946 60.5964 51.7397 60.8509 51.7397 61.1648C51.7397 61.4787 51.9946 61.7331 52.309 61.7331H65.5012C65.8156 61.7331 66.0704 61.4787 66.0704 61.1648C66.0704 60.8509 65.8156 60.5964 65.5012 60.5964Z" fill="#D7D7D8"/>
<path d="M93.9113 88.0944H54.0424C52.2381 88.0944 50.7754 89.5543 50.7754 91.3552C50.7754 93.1561 52.2381 94.6161 54.0424 94.6161H93.9113C95.7156 94.6161 97.1783 93.1561 97.1783 91.3552C97.1783 89.5543 95.7156 88.0944 93.9113 88.0944Z" fill="#D7D7D8"/>
<path d="M65.5012 82.6744H52.309C51.9946 82.6744 51.7397 82.9289 51.7397 83.2428C51.7397 83.5567 51.9946 83.8111 52.309 83.8111H65.5012C65.8156 83.8111 66.0704 83.5567 66.0704 83.2428C66.0704 82.9289 65.8156 82.6744 65.5012 82.6744Z" fill="#D7D7D8"/>
<path d="M117.321 26.8707C117.321 26.8707 112.824 27.3781 112.534 34.3288C112.292 40.121 111.799 43.3503 114.159 44.5589C115.003 44.99 115.995 45.0292 116.896 44.7331L126.531 41.5691C126.531 41.5691 126.677 31.1409 123.341 28.6084C120.004 26.0738 117.321 26.8707 117.321 26.8707Z" fill="#2F2E41"/>
<path d="M122.634 42.8496L117.757 44.4501V37.4427H122.18L122.634 42.8496Z" fill="#FFB6B6"/>
<path d="M107.728 82.6353C107.464 84.2402 106.391 85.3921 105.333 85.207C104.275 85.0219 103.63 83.5695 103.896 81.9625C103.992 81.3201 104.247 80.7104 104.64 80.19L105.848 73.4026L109.137 74.0907L107.595 80.7082C107.797 81.3354 107.843 81.9951 107.728 82.6353Z" fill="#FFB6B6"/>
<path d="M134.311 81.8557C134.635 83.4497 134.04 84.9064 132.985 85.1089C131.929 85.3115 130.81 84.1813 130.487 82.5874C130.35 81.9515 130.372 81.2939 130.551 80.6668L129.266 73.8925L132.585 73.3677L133.499 80.1006C133.911 80.6145 134.188 81.2155 134.311 81.8557Z" fill="#FFB6B6"/>
<path d="M120.8 121.304H116.233V127.773H120.8V121.304Z" fill="#FFB6B6"/>
<path d="M111.786 131.691C111.306 131.691 110.879 131.68 110.556 131.649C109.343 131.538 108.185 130.643 107.603 130.121C107.341 129.886 107.258 129.511 107.394 129.189C107.492 128.958 107.686 128.784 107.928 128.716L111.134 127.802L116.324 124.305L116.383 124.409C116.405 124.448 116.915 125.365 117.086 125.983C117.151 126.219 117.134 126.415 117.035 126.567C116.968 126.672 116.872 126.733 116.796 126.767C116.889 126.865 117.184 127.066 118.091 127.209C119.415 127.418 119.694 126.049 119.705 125.992L119.714 125.946L119.753 125.92C120.383 125.515 120.771 125.33 120.904 125.369C120.987 125.393 121.127 125.437 121.504 129.167C121.541 129.285 121.805 130.143 121.626 130.963C121.432 131.856 117.524 131.549 116.741 131.48C116.719 131.482 113.792 131.691 111.788 131.691H111.786Z" fill="#2F2E41"/>
<path d="M133.803 116.222L129.928 118.635L133.357 124.125L137.231 121.712L133.803 116.222Z" fill="#FFB6B6"/>
<path d="M128.657 130.805C128.121 130.805 127.628 130.739 127.277 130.678C126.932 130.617 126.662 130.343 126.605 129.999C126.566 129.751 126.638 129.5 126.808 129.315L129.043 126.846L131.595 121.136L131.7 121.193C131.739 121.215 132.657 121.722 133.13 122.158C133.311 122.323 133.401 122.499 133.396 122.68C133.394 122.806 133.346 122.907 133.298 122.978C133.429 123.013 133.785 123.026 134.631 122.669C135.865 122.149 135.377 120.838 135.355 120.784L135.337 120.74L135.357 120.699C135.678 120.021 135.907 119.66 136.042 119.623C136.127 119.599 136.267 119.562 138.563 122.53C138.657 122.608 139.335 123.198 139.619 123.989C139.926 124.849 136.448 126.654 135.748 127.007C135.726 127.024 132.086 129.666 130.59 130.417C129.996 130.715 129.294 130.807 128.655 130.807L128.657 130.805Z" fill="#2F2E41"/>
<path d="M124.163 67.2031H111.376L110.216 79.0794L115.293 122.961H121.82L119.21 97.6168L129.798 120.498L135.599 116.444L127.331 95.0821C127.331 95.0821 130.284 76.4729 127.964 71.8369C125.643 67.2031 124.163 67.2031 124.163 67.2031Z" fill="#2F2E41"/>
<path d="M130.522 67.9283H108.332L116.309 41.7151H125.157L130.522 67.9283Z" fill="#505BDA"/>
<path d="M117.705 41.7194C117.705 41.7194 112.194 41.5735 111.614 43.0238C111.034 44.4718 104.216 78.94 104.216 78.94H108.713L117.707 41.7194H117.705Z" fill="#505BDA"/>
<path d="M121.291 41.7499C121.291 41.7499 126.145 41.1359 126.725 42.5839C127.305 44.032 134.123 78.5002 134.123 78.5002H129.626L121.291 41.7499Z" fill="#505BDA"/>
<path d="M118.361 39.3829C121.045 39.3829 123.221 37.2108 123.221 34.5314C123.221 31.8519 121.045 29.6798 118.361 29.6798C115.678 29.6798 113.502 31.8519 113.502 34.5314C113.502 37.2108 115.678 39.3829 118.361 39.3829Z" fill="#FFB6B6"/>
<path d="M117.031 28.6803C117.031 28.6803 114.357 39.5222 117.33 44.5894L113.143 43.7009C113.143 43.7009 111.52 31.8355 114.783 29.6776L117.031 28.6781V28.6803Z" fill="#2F2E41"/>
<path d="M148 131.432C148 131.612 147.854 131.758 147.673 131.758H0.327134C0.14612 131.758 0 131.612 0 131.432C0 131.251 0.14612 131.105 0.327134 131.105H147.673C147.854 131.105 148 131.251 148 131.432Z" fill="#2E2E41"/>
<path d="M25.1021 38.0481L30.6873 39.8816V31.853H25.6189L25.1021 38.0481Z" fill="#A0616A"/>
<path d="M29.9958 34.0741C33.0696 34.0741 35.5615 31.5861 35.5615 28.517C35.5615 25.4479 33.0696 22.96 29.9958 22.96C26.922 22.96 24.4302 25.4479 24.4302 28.517C24.4302 31.5861 26.922 34.0741 29.9958 34.0741Z" fill="#A0616A"/>
<path d="M28.5786 28.9526L29.3463 29.8824L30.7334 27.4566C30.7334 27.4566 32.5042 27.548 32.5042 26.235C32.5042 24.9219 34.129 24.8849 34.129 24.8849C34.129 24.8849 36.4299 20.8739 31.6646 21.93C31.6646 21.93 28.3584 19.6697 26.7161 21.6012C26.7161 21.6012 21.6761 24.1358 23.1177 28.5475L25.5145 33.0964L26.0575 32.0664C26.0575 32.0664 25.7282 27.744 28.5786 28.9482V28.9526Z" fill="#2F2E41"/>
<path d="M23.4249 127.843H27.9917V121.374H23.4249V127.843Z" fill="#A0616A"/>
<path d="M27.4878 131.549C26.707 131.619 22.7989 131.928 22.6026 131.033C22.4238 130.212 22.6876 129.354 22.7247 129.237C23.0998 125.504 23.2394 125.463 23.3245 125.439C23.4575 125.4 23.8457 125.585 24.476 125.99L24.5152 126.016L24.524 126.062C24.5349 126.121 24.814 127.49 26.1378 127.279C27.0451 127.135 27.3395 126.935 27.4333 126.837C27.3569 126.802 27.261 126.741 27.1934 126.637C27.0952 126.484 27.0778 126.288 27.1432 126.053C27.3133 125.433 27.8237 124.516 27.8455 124.479L27.9044 124.374L33.0949 127.871L36.3008 128.786C36.5429 128.856 36.737 129.028 36.8351 129.258C36.9703 129.581 36.8875 129.955 36.6258 130.19C36.0435 130.713 34.8876 131.608 33.6728 131.719C33.3501 131.75 32.9226 131.76 32.4428 131.76C30.4386 131.76 27.5118 131.554 27.49 131.549H27.4878Z" fill="#2F2E41"/>
<path d="M33.8255 65.5982L21.8459 64.9863C21.8459 64.9863 20.0095 71.937 22.33 79.1795L22.6092 122.793H29.3787L35.76 77.8033L33.8255 65.5982Z" fill="#2F2E41"/>
<path d="M31.8041 36.5064L25.2287 33.0223C25.2287 33.0223 18.143 43.3613 19.1222 48.9619C20.1036 54.5625 21.8439 64.9886 21.8439 64.9886L36.3491 65.6004L33.8171 45.0685L31.8041 36.5064Z" fill="#E6E6E6"/>
<path d="M26.6744 127.843H31.2412V121.374H26.6744V127.843Z" fill="#A0616A"/>
<path d="M30.7373 131.549C29.9566 131.619 26.0484 131.928 25.8521 131.033C25.6733 130.212 25.9372 129.354 25.9742 129.237C26.3493 125.504 26.4889 125.463 26.574 125.439C26.707 125.4 27.0952 125.585 27.7255 125.99L27.7648 126.016L27.7735 126.062C27.7844 126.121 28.0635 127.49 29.3873 127.279C30.2946 127.135 30.589 126.935 30.6828 126.837C30.6065 126.802 30.5105 126.741 30.4429 126.637C30.3448 126.484 30.3273 126.288 30.3927 126.053C30.5628 125.433 31.0732 124.516 31.095 124.479L31.1539 124.374L36.3444 127.871L39.5503 128.786C39.7924 128.856 39.9865 129.028 40.0846 129.258C40.2199 129.581 40.137 129.955 39.8753 130.19C39.293 130.713 38.1371 131.608 36.9223 131.719C36.5996 131.75 36.1721 131.76 35.6923 131.76C33.6881 131.76 30.7613 131.554 30.7395 131.549H30.7373Z" fill="#2F2E41"/>
<path d="M36.349 65.5982L21.8439 64.9863C21.8439 64.9863 20.0076 71.937 22.3281 79.1795L25.1327 122.793H31.9022L38.2835 77.8033L36.349 65.5982Z" fill="#2F2E41"/>
<path d="M41.9211 76.9868C42.4554 78.5241 42.0607 80.0462 41.0422 80.3881C40.0237 80.7278 38.7653 79.7588 38.231 78.2192C38.0086 77.6074 37.9431 76.9519 38.0391 76.3074L35.8647 69.7639L39.0838 68.8036L40.8874 75.3558C41.365 75.8109 41.7205 76.3705 41.9233 76.9868H41.9211Z" fill="#A0616A"/>
<path d="M23.6714 38.9669C23.6714 38.9669 28.3996 37.7127 29.1694 39.0715C29.9371 40.4302 41.2887 73.6856 41.2887 73.6856L34.083 74.6219L23.6736 38.9669H23.6714Z" fill="#E6E6E6"/>
</g>
<defs>
<clipPath id="clip0_35_5033">
<rect width="148" height="132" fill="white"/>
</clipPath>
</defs>
</svg>
