<svg width="282" height="256" viewBox="0 0 282 256" fill="none" xmlns="http://www.w3.org/2000/svg">
<g clip-path="url(#clip0_35_4973)">
<path d="M244.086 216.913H37.2222V181.873H40.4134V155.791C40.4203 149.647 42.8699 143.755 47.2248 139.41C51.5797 135.065 57.4842 132.621 63.6429 132.614H218.041C224.199 132.621 230.104 135.065 234.459 139.41C238.814 143.755 241.263 149.647 241.27 155.791V181.873H244.086V216.913Z" fill="#DFE0EC"/>
<path d="M249.691 255.48H239.393V255.292C239.383 246.205 235.76 237.493 229.32 231.068C222.88 224.642 214.149 221.028 205.041 221.017H76.2672C67.1596 221.028 58.4279 224.642 51.9879 231.068C45.5478 237.493 41.9253 246.205 41.915 255.292V255.48H31.6172C29.271 255.477 27.0217 254.546 25.3627 252.891C23.7037 251.236 22.7705 248.991 22.7679 246.65V189.371C19.7776 187.686 17.3454 178.53 18.9252 171.219C19.9166 166.631 22.7787 161.089 30.7835 160.746C38.5759 160.412 44.3598 167.711 44.8764 174.737C45.1564 178.435 44.068 182.106 41.8174 185.057H41.915V193.228C58.8127 187.825 75.7344 185.076 92.2135 185.057C109.077 185.073 125.822 187.854 141.782 193.288C174.964 182.579 207.803 182.371 239.393 192.671V185.057H239.491C237.24 182.106 236.152 178.435 236.432 174.737C236.998 167.031 243.317 160.754 250.516 160.746H250.54C259.03 160.746 262.033 165.846 263.057 170.126C264.87 177.701 261.542 187.672 258.54 189.371V246.65C258.538 248.991 257.604 251.236 255.945 252.891C254.286 254.546 252.037 255.477 249.691 255.48Z" fill="#C6C8DA"/>
<path d="M192.158 240.152L197.129 243.695L213.19 226.252L205.854 221.023L192.158 240.152Z" fill="#FFB6B6"/>
<path d="M192.049 237.63L193.449 238.627L200.498 240.304L201.838 244.607L201.839 244.607C203.493 245.786 204.61 247.573 204.944 249.574C205.279 251.575 204.802 253.627 203.62 255.278L203.476 255.48L187.448 244.056L192.049 237.63Z" fill="#2F2E41"/>
<path d="M225.841 193.451H189.343C185.94 193.449 182.676 192.099 180.27 189.697C177.864 187.295 176.513 184.039 176.513 180.643C176.513 177.247 177.864 173.99 180.27 171.588C182.676 169.186 185.94 167.836 189.343 167.834H225.841C229.246 167.834 232.511 169.184 234.919 171.586C237.326 173.988 238.679 177.246 238.679 180.643C238.679 184.04 237.326 187.298 234.919 189.7C232.511 192.102 229.246 193.451 225.841 193.451Z" fill="#2F2E41"/>
<path d="M207.934 104.012L213.822 108.485L220.921 110.662C220.921 110.662 223.856 151.856 226.501 154.495C229.146 157.133 226.761 157.204 227.292 160.632C227.824 164.06 229.115 171.087 229.115 171.087C211.263 180.516 195.873 180.769 183.511 169.736C183.353 169.053 183.433 168.337 183.739 167.706C184.044 167.076 184.556 166.568 185.191 166.268C187.492 165.05 183.07 159.364 184.95 158.414C186.83 157.463 184.186 149.217 184.186 149.217L185.921 132.012L184.55 129.262L187.895 112.433L193.699 110.318L196.018 104.745L207.934 104.012Z" fill="#505BDA"/>
<path d="M211.622 65.552C211.596 66.2959 211.733 67.0366 212.025 67.7218C212.316 68.407 212.755 69.0201 213.31 69.5179C213.864 70.0157 214.522 70.3861 215.236 70.603C215.949 70.8199 216.702 70.8781 217.441 70.7733L225.737 86.8637L230.36 78.6693L221.772 64.6459C221.514 63.4195 220.813 62.3303 219.804 61.5848C218.794 60.8392 217.545 60.4891 216.294 60.6008C215.043 60.7125 213.876 61.2782 213.015 62.1907C212.154 63.1032 211.659 64.2992 211.622 65.552Z" fill="#FFB6B6"/>
<path d="M225.595 69.488L243.391 97.007L243.332 97.1336C243.265 97.2787 239.235 105.962 235.33 113.916C234.729 115.141 234.131 116.349 233.55 117.505C233.3 118.004 233.053 118.493 232.81 118.971C231.17 122.197 229.737 124.863 228.882 126.13C226.99 128.993 224.173 131.125 220.9 132.171L220.817 132.192L220.739 132.16C219.137 131.485 217.814 130.287 216.987 128.762C216.16 127.236 215.879 125.476 216.189 123.77C217.733 115.54 221.173 107.781 226.236 101.105L229.121 97.3112L219.096 75.5636L225.595 69.488Z" fill="#505BDA"/>
<path d="M194.85 62.1806C194.876 62.9246 194.739 63.6652 194.447 64.3505C194.155 65.0357 193.717 65.6488 193.162 66.1466C192.607 66.6444 191.95 67.0148 191.236 67.2317C190.523 67.4486 189.77 67.5067 189.031 67.402L180.734 83.4924L176.112 75.298L184.7 61.2746C184.958 60.0481 185.659 58.959 186.668 58.2134C187.678 57.4679 188.927 57.1178 190.178 57.2295C191.429 57.3412 192.596 57.9069 193.457 58.8194C194.318 59.7319 194.813 60.9279 194.85 62.1806Z" fill="#FFB6B6"/>
<path d="M180.877 66.1167L163.082 93.6357L163.14 93.7623C163.207 93.9074 167.237 102.591 171.142 110.545C171.743 111.77 172.342 112.977 172.922 114.134C173.172 114.633 173.419 115.121 173.662 115.599C175.302 118.825 176.735 121.492 177.59 122.758C179.482 125.622 182.299 127.754 185.572 128.8L185.655 128.821L185.733 128.788C187.335 128.114 188.658 126.916 189.485 125.39C190.312 123.865 190.593 122.104 190.283 120.398C188.739 112.169 185.299 104.41 180.236 97.7339L177.351 93.9398L187.376 72.1923L180.877 66.1167Z" fill="#505BDA"/>
<path d="M201.908 101.523C208.339 101.523 213.553 96.3208 213.553 89.904C213.553 83.4872 208.339 78.2853 201.908 78.2853C195.477 78.2853 190.263 83.4872 190.263 89.904C190.263 96.3208 195.477 101.523 201.908 101.523Z" fill="#FFB6B6"/>
<path d="M192.423 79.9224C193.38 77.1427 198.148 75.2146 205.876 74.9465C213.604 74.6784 215.564 83.7655 215.564 83.7655C220.724 87.9413 210.055 99.1211 209.539 98.7184L209.771 96.618C210.156 93.1388 211.788 90.4242 209.712 86.7983L207.718 86.8212L203.936 87.5468C203.7 87.592 203.456 87.5587 203.241 87.4518C203.026 87.3449 202.852 87.1705 202.747 86.9555C202.641 86.7404 202.609 86.4966 202.656 86.2617C202.703 86.0268 202.826 85.8138 203.006 85.6555L203.041 85.625L202.955 85.4923C201.622 86.1022 200.25 86.6677 198.793 86.7531C197.154 86.8493 195.363 86.1985 194.578 84.7601C194.368 84.3646 194.24 83.9314 194.201 83.4858C191.991 84.3667 190.981 87.0848 190.981 87.0848C190.981 87.0848 191.465 82.7022 192.423 79.9224Z" fill="#2F2E41"/>
<path d="M223.873 235.21L219.211 239.149L201.767 223.082L208.647 217.269L223.873 235.21Z" fill="#FFB6B6"/>
<path d="M228.888 238.714L213.857 251.414L213.696 251.224C212.382 249.676 211.738 247.67 211.906 245.649C212.074 243.627 213.04 241.754 214.592 240.443L214.592 240.443L215.574 236.045L222.461 233.795L223.773 232.687L228.888 238.714Z" fill="#2F2E41"/>
<path d="M195.062 190.783L198.915 182.446C198.872 174.841 192.492 168.665 184.884 169.141C180.648 169.407 176.681 171.771 175.042 178.797C170.828 196.866 212.181 234.467 212.181 234.467L219.779 229.781L220.129 224.831L215.874 222.214L215.87 217.993L211.812 216.073L195.062 190.783Z" fill="#2F2E41"/>
<path d="M220.377 188.487L215.614 181.5C215.03 173.917 220.88 167.238 228.501 167.089C232.745 167.006 236.893 169.037 239.105 175.905C244.795 193.567 206.68 234.432 206.68 234.432L198.721 230.386L197.964 225.482L201.99 222.525L201.646 218.317L205.531 216.071L220.377 188.487Z" fill="#2F2E41"/>
<path d="M124.498 249.55L118.802 249.55L116.092 227.627L124.499 227.628L124.498 249.55Z" fill="#C9939A"/>
<path d="M124.699 255.48L107.182 255.479V255.258C107.182 253.454 107.9 251.724 109.179 250.448C110.457 249.172 112.192 248.455 114 248.455H114L117.2 246.033L123.17 248.456L124.699 248.456L124.699 255.48Z" fill="#2F2E41"/>
<path d="M164.805 249.55L170.501 249.55L173.211 227.627L164.803 227.628L164.805 249.55Z" fill="#C9939A"/>
<path d="M164.604 255.48L182.121 255.479V255.258C182.121 253.454 181.403 251.724 180.124 250.448C178.846 249.172 177.111 248.455 175.303 248.455H175.303L172.103 246.033L166.133 248.456L164.604 248.456L164.604 255.48Z" fill="#2F2E41"/>
<path d="M115.841 211.517C115.925 210.266 116.594 203.348 116.594 203.348L118.197 188.677L121.02 149.786L121.205 147.24L135.997 144.406L146.107 139.571L158.124 143.403L167.481 146.904C167.481 146.904 167.497 148.403 167.569 150.214C167.665 152.583 167.834 155.489 168.234 156.244C168.903 157.579 168.735 164.745 168.735 164.745C168.735 164.745 169.4 179.325 170.237 180.923C171.074 182.522 171.242 185.851 170.99 186.519C170.738 187.186 171.827 204.695 171.827 204.695C171.827 204.695 174.624 235.679 172.869 240.352C171.115 245.024 164.485 241.963 164.485 241.963C164.485 241.963 164.805 240.716 162.883 240.129C160.96 239.541 155.104 195.607 155.104 195.607C155.104 195.607 154.014 186.598 153.013 184.017C152.012 181.435 151.09 174.181 151.09 174.181C151.09 174.181 144.906 162.175 144.826 159.506C144.826 159.506 144.017 157.008 143.251 159.757C142.486 162.507 140.231 169.093 140.231 169.093L138.032 177.182L135.445 189.268L133.77 199.443C133.77 199.443 131.263 212.948 130.862 213.531C130.462 214.115 130.862 226.452 130.862 226.452C130.862 226.452 128.924 236.959 126.184 238.794C123.444 240.628 116.185 238.823 116.185 238.823C116.185 238.823 115.757 212.768 115.841 211.517Z" fill="#2F2E41"/>
<path d="M122.152 106.671L125.441 115.262L121.383 119.452L123.17 121.047L121.852 123.302L118.415 146.933L137.257 153.131L143.602 146.231L148.605 153.131L170.407 148.511L164.848 118.375V116.405L163.278 112.601V104.548L170.487 80.576L155.05 76.8166L149.134 72.7552L147.219 78.467L139.068 77.2091L138.855 72.9186L132.619 78.0291L124.303 79.3286L118.015 80.576L117.213 82.3129L118.815 81.9653L121.619 104.565L122.152 106.671Z" fill="#2F2E41"/>
<path d="M134.832 83.4734L138.856 72.9432L149.134 72.7554L152.544 83.4734L164.804 151.802C164.804 151.802 127.247 162.237 127.628 149.694C128.028 136.505 129.836 118.986 129.836 118.986L134.832 83.4734Z" fill="#3F3D56"/>
<path d="M143.765 69.9978C150.452 69.9978 155.873 64.5891 155.873 57.917C155.873 51.245 150.452 45.8363 143.765 45.8363C137.078 45.8363 131.657 51.245 131.657 57.917C131.657 64.5891 137.078 69.9978 143.765 69.9978Z" fill="#C9939A"/>
<path d="M130.943 49.1532C132.914 47.0125 135.38 43.094 142.848 41.4485C152.076 39.4152 156.436 47.7327 154.109 47.8691C160.914 49.9251 156.542 63.9754 154.592 62.797C154.575 62.7854 154.559 62.7728 154.543 62.7595C153.494 61.9886 152.614 61.0123 151.955 59.8904C151.297 58.7685 150.875 57.5244 150.715 56.2342L150.344 52.9094C150.292 55.6146 147.52 55.9724 144.689 54.9761C144.857 54.383 145.176 53.8437 145.616 53.4114C146.056 52.9791 146.602 52.6687 147.199 52.5109C145.467 54.1048 143.213 55.2451 140.064 55.6084C140.45 54.1157 141.22 53.017 142.426 52.3657L142.314 52.2562C141.16 53.1322 139.958 53.9742 138.571 54.3709C137.01 54.8172 135.14 54.5757 134.071 53.3569C133.783 53.0205 133.566 52.63 133.431 52.2084C133.663 54.3508 132.222 56.7963 131.104 56.3764C130.173 56.1959 129.631 50.5783 130.943 49.1532Z" fill="#2F2E41"/>
<path d="M158.694 57.2509L169.705 75.7353L177.844 71.8999C177.844 71.8999 163.82 54.423 163.373 53.9202C163.564 53.0707 163.493 52.1833 163.168 51.3753C162.842 50.5674 162.279 49.8769 161.552 49.3953C160.825 48.9138 159.969 48.6637 159.096 48.6783C158.224 48.6929 157.376 48.9715 156.666 49.4771C155.955 49.9828 155.416 50.6917 155.118 51.5101C154.82 52.3285 154.778 53.2178 154.998 54.0604C155.218 54.903 155.689 55.6591 156.349 56.2289C157.009 56.7986 157.826 57.155 158.694 57.2509Z" fill="#C9939A"/>
<path d="M164.025 103.185L181.115 90.9016C182.23 90.1002 183.165 89.0755 183.86 87.893C184.555 86.7105 184.996 85.3962 185.153 84.0342C185.311 82.6722 185.181 81.2924 184.774 79.9831C184.366 78.6737 183.689 77.4636 182.786 76.4301L170.487 62.3533L165.129 69.5974L169.259 78.213L161.263 80.3169L164.025 103.185Z" fill="#2F2E41"/>
<path d="M134.693 58.9882L123.681 77.4726L115.542 73.6372C115.542 73.6372 129.567 56.1603 130.014 55.6575C129.822 54.808 129.894 53.9206 130.219 53.1126C130.544 52.3047 131.108 51.6142 131.835 51.1326C132.562 50.6511 133.418 50.401 134.29 50.4156C135.163 50.4303 136.01 50.7088 136.721 51.2144C137.431 51.7201 137.971 52.429 138.269 53.2474C138.567 54.0658 138.608 54.9551 138.389 55.7977C138.169 56.6403 137.698 57.3964 137.038 57.9662C136.378 58.5359 135.56 58.8923 134.693 58.9882Z" fill="#C9939A"/>
<path d="M129.362 104.923L112.272 92.639C111.157 91.8376 110.222 90.8129 109.526 89.6304C108.831 88.4479 108.391 87.1336 108.233 85.7716C108.076 84.4096 108.205 83.0298 108.613 81.7205C109.02 80.4111 109.697 79.201 110.6 78.1676L122.899 64.0907L128.257 71.3349L124.127 79.9504L132.124 82.0543L129.362 104.923Z" fill="#2F2E41"/>
<path d="M11.2933 65.9465C11.5558 66.3338 11.9003 66.659 12.3025 66.8991C12.7046 67.1392 13.1546 67.2885 13.6208 67.3363C14.087 67.3841 14.558 67.3293 15.0007 67.1759C15.4434 67.0224 15.847 66.774 16.1831 66.448L26.3626 71.5508L25.6691 65.6849L16.1088 61.7385C15.5226 61.2116 14.763 60.9175 13.974 60.9119C13.185 60.9064 12.4214 61.1898 11.8278 61.7085C11.2343 62.2272 10.852 62.9451 10.7535 63.7262C10.655 64.5072 10.847 65.2972 11.2933 65.9465Z" fill="#FFB6B6"/>
<path d="M53.4055 89.623L48.3371 86.1353C48.3371 86.1353 42.533 85.7426 41.66 83.9016C40.7871 82.0605 40.64 82.6795 39.7094 82.4593C38.7788 82.2391 38.2987 79.468 36.7387 79.7949C33.2291 80.5304 16.7237 69.6485 18.5051 68.2885L19.8293 62.7177C21.2284 63.2388 22.6872 63.584 24.1719 63.7452C26.4168 63.9496 31.7059 66.5087 32.4894 67.3479C33.2728 68.1871 34.6607 67.8617 36.5218 68.3021C38.3829 68.7425 39.0343 71.7295 42.1211 70.9347C46.4644 69.8163 68.9658 80.4649 71.4002 81.4589C74.0719 82.5498 75.9377 85.8016 75.9377 85.8016L75.2021 88.8965L53.4055 89.623Z" fill="#505BDA"/>
<path d="M89.9843 247.843H94.4016L96.5037 230.843H89.9839L89.9843 247.843Z" fill="#FFB6B6"/>
<path d="M88.5425 244.825L95.5998 244.404V247.421L102.309 252.045C102.641 252.273 102.89 252.601 103.022 252.981C103.153 253.361 103.159 253.773 103.039 254.156C102.92 254.54 102.68 254.875 102.356 255.113C102.031 255.351 101.639 255.48 101.236 255.48H92.8342L91.386 252.496L90.8205 255.48H87.6526L88.5425 244.825Z" fill="#2F2E41"/>
<path d="M34.6191 244.099L38.7234 245.729L46.978 230.71L40.9208 228.304L34.6191 244.099Z" fill="#FFB6B6"/>
<path d="M34.3988 240.762L41.1115 242.976L39.9932 245.779L44.5132 252.551C44.7365 252.885 44.8468 253.282 44.828 253.683C44.8092 254.085 44.6623 254.47 44.4088 254.782C44.1552 255.094 43.8083 255.317 43.4186 255.419C43.0289 255.52 42.6169 255.495 42.2428 255.346L34.4365 252.246L34.1971 248.939L32.5656 251.503L29.6223 250.334L34.3988 240.762Z" fill="#2F2E41"/>
<path d="M81.0798 197.257L73.7137 162.958L62.2112 201.067L43.9975 237.203L43.901 237.395L38.1316 234.296C37.3174 219.623 39.2512 205.873 46.3241 193.85L49.6734 160.849C49.776 159.721 52.2743 133.248 60.1851 128.554L62.5019 123.283L85.5443 117.605L85.6281 117.699C87.8439 120.184 89.3076 123.245 89.8491 126.527L96.7344 168.144L96.7383 168.168L94.8921 197.201L97.4174 240.034H88.28C82.6272 229.421 80.2272 215.162 81.0798 197.257Z" fill="#2F2E41"/>
<path d="M100.916 53.4107C101.267 53.7203 101.546 54.103 101.733 54.5318C101.92 54.9606 102.01 55.425 101.998 55.8925C101.985 56.3599 101.87 56.8189 101.661 57.2372C101.452 57.6555 101.153 58.0229 100.786 58.3135L104.548 69.042L98.8071 67.6015L96.1142 57.6343C95.6658 56.9865 95.4712 56.1972 95.5672 55.4158C95.6631 54.6344 96.043 53.9152 96.6349 53.3946C97.2267 52.874 97.9894 52.5881 98.7784 52.5911C99.5675 52.594 100.328 52.8857 100.916 53.4107Z" fill="#FFB6B6"/>
<path d="M55.7101 134.449C55.0895 134.449 54.737 134.328 54.6005 134.068C54.4003 133.686 54.7478 133.186 55.1502 132.608C55.4308 132.205 56.2506 131.404 55.8475 131.355C49.7349 130.61 52.6691 93.0083 55.3181 88.038C55.8564 87.0281 55.2869 85.4786 55.893 83.7648C57.5487 79.0844 59.8087 77.6459 64.3109 74.7806C64.6763 74.548 65.0569 74.305 65.4526 74.0517C65.9644 73.7235 65.9359 72.6355 65.9057 71.4832C65.8723 70.2026 65.8376 68.8783 66.4663 68.0506L66.5072 67.9966L66.5732 67.9813C68.0941 67.6305 73.2091 66.9792 76.2384 67.986L76.2802 68.0002L76.3115 68.0313C77.031 68.7492 77.0966 70.1399 77.1601 71.4847C77.2119 72.5888 77.2611 73.6313 77.6682 74.0842C80.7806 77.5456 84.3105 77.4782 84.3464 77.4774L84.5212 77.4723L84.5386 77.6459C86.7207 81.7899 85.0121 97.1802 86.5289 106.74C88.0699 116.452 101.23 124.72 89.9613 126.188C89.9856 126.225 89.9991 126.269 90.0005 126.313C90.0018 126.358 89.991 126.402 89.969 126.44C89.2882 127.71 58.049 134.449 55.7101 134.449Z" fill="#505BDA"/>
<path d="M106.651 87.0894L100.397 90.1848C88.3447 94.804 82.046 93.6788 78.8815 91.9227C75.505 90.0489 74.9195 87.1763 74.8966 87.055L74.8945 86.9965L75.666 80.8989C75.764 80.1244 76.026 79.3795 76.4344 78.7137C76.8428 78.0478 77.3884 77.4762 78.0351 77.0367C78.6817 76.5972 79.4146 76.2998 80.1852 76.1643C80.9557 76.0289 81.7463 76.0584 82.5046 76.2509L96.8939 79.9045L96.6314 72.9353L97.2005 70.4259L96.1509 67.3757L96.581 61.2497L101.742 59.9893L107.156 69.6649L106.184 72.3353L107.1 73.6646L107.098 73.7262L106.651 87.0894Z" fill="#505BDA"/>
<path d="M281.553 255.885L0.446951 256C0.328617 256 0.21525 255.952 0.131697 255.869C0.0481433 255.785 0.0012207 255.672 0.0012207 255.554C0.0012207 255.436 0.0481433 255.323 0.131697 255.239C0.21525 255.155 0.328617 255.108 0.446951 255.108L281.553 254.993C281.671 254.993 281.785 255.04 281.868 255.124C281.952 255.208 281.999 255.321 281.999 255.439C281.999 255.557 281.952 255.67 281.868 255.754C281.785 255.837 281.671 255.885 281.553 255.885Z" fill="#CACACA"/>
<path d="M194.281 39.6974C197.739 32.3613 194.94 23.7856 189.943 21.4407C184.946 19.0957 176.541 22.414 173.083 29.75C169.882 36.5404 172.267 44.4938 176.371 47.3912C176.302 47.4115 176.237 47.4448 176.181 47.4892L175.195 48.2996C175.119 48.3614 175.061 48.4413 175.026 48.5318C174.99 48.6223 174.979 48.7203 174.992 48.8166C175.005 48.9129 175.042 49.0042 175.101 49.0819C175.159 49.1596 175.237 49.2211 175.326 49.2606L177.813 50.3633C177.902 50.4028 178 50.4189 178.097 50.4102C178.194 50.4014 178.287 50.368 178.367 50.3132C178.448 50.2584 178.513 50.1841 178.556 50.0971C178.6 50.0102 178.62 49.9136 178.616 49.8165L178.558 48.5432C178.555 48.4988 178.547 48.4551 178.533 48.4127C183.392 49.7449 191.073 46.5025 194.281 39.6974Z" fill="#C6C7D3"/>
<path d="M191.448 29.176C192.233 31.4484 192.114 33.9347 191.114 36.1218C190.115 38.3089 188.313 40.0297 186.079 40.9292C185.57 41.1405 185.976 41.8938 186.482 41.6839C188.876 40.6887 190.804 38.8273 191.88 36.4729C192.957 34.1185 193.101 31.4452 192.284 28.989C192.112 28.4709 191.274 28.6541 191.448 29.176Z" fill="white"/>
<path d="M254.953 64.2784C261.95 60.1578 264.476 51.4982 261.669 46.7534C258.863 42.0086 250.044 40.03 243.047 44.1506C236.57 47.9648 234.053 55.8774 235.81 60.5774C235.741 60.5554 235.669 60.5466 235.598 60.5516L234.325 60.6675C234.228 60.6764 234.135 60.7098 234.055 60.7646C233.974 60.8194 233.909 60.8939 233.866 60.9808C233.822 61.0678 233.802 61.1644 233.807 61.2615C233.811 61.3585 233.84 61.4528 233.892 61.5354L235.325 63.8439C235.376 63.9265 235.448 63.9947 235.533 64.0419C235.618 64.0892 235.714 64.1139 235.811 64.1138C235.909 64.1137 236.004 64.0888 236.089 64.0414C236.174 63.994 236.246 63.9257 236.297 63.8429L236.967 62.7579C236.99 62.7196 237.008 62.6788 237.021 62.6363C240.285 66.4667 248.462 68.1009 254.953 64.2784Z" fill="#505BDA"/>
<path d="M258.549 53.9918C257.915 56.3107 256.414 58.2986 254.354 59.5449C252.294 60.7913 249.833 61.201 247.479 60.6896C246.94 60.5784 246.85 61.4292 247.387 61.5396C249.927 62.062 252.571 61.6068 254.789 60.2654C257.007 58.9241 258.634 56.7956 259.345 54.307C259.495 53.7819 258.699 53.4627 258.549 53.9918Z" fill="white"/>
<path d="M210.414 30.5836C209.533 28.6481 209.123 26.5318 209.22 24.4081C209.317 22.2844 209.916 20.2138 210.97 18.3659C211.27 17.8454 211.569 17.2152 212.228 17.1151C212.476 17.07 212.733 17.1103 212.956 17.2297C213.179 17.349 213.355 17.5402 213.454 17.772C213.542 18.0805 213.526 18.4092 213.408 18.7076C213.291 19.006 213.078 19.2574 212.803 19.4231C212.527 19.5888 212.205 19.6595 211.886 19.6244C211.566 19.5893 211.267 19.4503 211.035 19.2289C209.786 18.2252 209.945 16.4588 210.065 15.0369C210.338 11.797 210.334 8.39563 208.953 5.38016C207.674 2.59019 205.065 0.256548 201.914 0.00168408C201.363 -0.0428922 201.331 0.811871 201.88 0.856234C205.005 1.10901 207.451 3.67813 208.49 6.48991C209.077 8.18275 209.368 9.96331 209.353 11.7544C209.363 12.6738 209.32 13.593 209.249 14.5095C209.141 15.4028 209.113 16.3039 209.165 17.2022C209.312 18.6683 210.201 20.2401 211.79 20.4743C213.272 20.6929 214.719 19.1459 214.319 17.6759C214.222 17.3581 214.048 17.0693 213.811 16.8352C213.575 16.6011 213.285 16.4291 212.965 16.3347C212.646 16.2403 212.309 16.2264 211.983 16.2942C211.657 16.362 211.353 16.5094 211.098 16.7233C210.542 17.187 210.18 17.9834 209.862 18.6198C208.904 20.5345 208.387 22.6394 208.352 24.7795C208.317 26.9196 208.763 29.0403 209.658 30.9856C209.893 31.4838 210.649 31.0805 210.414 30.5836Z" fill="#C6C7D3"/>
<path d="M95.8712 27.0131C95.9011 25.9375 95.6753 24.8705 95.2123 23.8996C94.7493 22.9287 94.0622 22.0816 93.2075 21.4277C92.965 21.2441 92.7015 21.0093 92.375 21.0922C92.2501 21.1202 92.1383 21.1895 92.0579 21.289C91.9775 21.3885 91.9333 21.5122 91.9324 21.6399C91.9521 21.801 92.0243 21.9511 92.138 22.0669C92.2516 22.1828 92.4003 22.2581 92.5612 22.2812C92.7221 22.3043 92.8862 22.2738 93.0282 22.1946C93.1702 22.1153 93.2822 21.9917 93.347 21.8427C93.7314 21.1291 93.3098 20.337 92.974 19.6979C92.2088 18.2415 91.5413 16.6553 91.5917 14.9778C91.6383 13.4258 92.3952 11.8245 93.8139 11.0854C94.0621 10.9561 94.2449 11.3484 93.9979 11.477C92.5909 12.21 91.9566 13.8889 92.0258 15.404C92.0856 16.3085 92.3 17.1959 92.6598 18.0277C92.8361 18.4582 93.0368 18.8783 93.2504 19.2915C93.4764 19.6866 93.6669 20.1011 93.8195 20.5301C94.0396 21.2423 93.9347 22.1499 93.2403 22.5718C92.5924 22.9654 91.6132 22.5293 91.5107 21.7652C91.4933 21.598 91.5176 21.4291 91.5816 21.2735C91.6456 21.1179 91.7472 20.9805 91.8774 20.8737C92.0076 20.7669 92.1622 20.6939 92.3275 20.6614C92.4927 20.6289 92.6634 20.6378 92.8242 20.6873C93.1749 20.7939 93.5003 21.0939 93.7735 21.3281C94.5973 22.0318 95.2522 22.9113 95.69 23.9019C96.1277 24.8924 96.3372 25.9688 96.3029 27.0516C96.2914 27.3301 95.8597 27.2909 95.8712 27.0131Z" fill="#C6C7D3"/>
<path d="M81.0323 70.4456C80.7094 69.8575 80.1538 68.1756 79.5306 68.1981C78.8931 68.226 78.2546 68.1718 77.6309 68.037C77.5633 68.0258 77.4957 68.0108 77.4319 67.9958C74.7991 67.3403 72.0996 66.9883 69.3864 66.9469C67.1976 66.917 64.7948 67.1792 63.2668 68.7412C61.7388 70.3033 61.964 73.5247 64.0702 74.1203C57.0316 75.3363 49.7963 73.7361 43.932 69.6665C40.2039 67.0518 37.2155 63.5494 34.0543 60.2755C30.8932 56.9978 27.4091 53.8475 23.148 52.2442C18.883 50.6373 13.6683 50.862 10.233 53.855C6.0432 57.5035 5.72032 63.7816 5.71657 69.3293C5.71281 71.4046 6.36232 70.9663 8.19819 71.944C9.90265 72.8505 11.6935 74.7159 12.7334 73.094C13.7734 71.472 13.9573 69.4679 14.1713 67.5538C14.3816 65.6396 14.6932 63.6243 15.9096 62.1297C18.0008 59.56 22.1193 59.5338 25.0064 61.1633C27.8934 62.7927 29.8344 65.6434 31.6703 68.4003C33.5062 71.1536 35.4434 74.0117 38.3267 75.6524C42.1149 77.8063 46.8716 77.4879 50.8249 79.3234C53.3366 80.4921 55.3677 82.4512 57.4513 84.268C59.5387 86.0848 61.8251 87.8341 64.532 88.4222C67.2351 89.0141 70.4451 88.1225 71.7741 85.6989C72.9718 83.5076 72.3861 80.7019 73.4523 78.4394C74.2745 76.6938 75.9527 75.5363 77.4657 74.3301C78.0889 73.8319 78.2504 75.5475 78.7797 74.9407C80.3077 74.6373 81.7419 71.738 81.0323 70.4456Z" fill="#3F3D56"/>
<path d="M70.5053 67.3464C77.057 67.3464 82.3683 62.0471 82.3683 55.51C82.3683 48.973 77.057 43.6737 70.5053 43.6737C63.9536 43.6737 58.6423 48.973 58.6423 55.51C58.6423 62.0471 63.9536 67.3464 70.5053 67.3464Z" fill="#2F2E41"/>
<path d="M71.4604 68.3234C76.1669 68.1903 79.8742 64.2756 79.7409 59.5797C79.6075 54.8837 75.684 51.1848 70.9775 51.3178C66.271 51.4509 62.5637 55.3655 62.697 60.0615C62.8304 64.7575 66.7539 68.4564 71.4604 68.3234Z" fill="#FFB6B6"/>
<path d="M71.3014 46.8481L67.8454 46.9458C65.6675 47.0091 63.6037 47.932 62.107 49.5118C60.6103 51.0917 59.803 53.1995 59.8622 55.3727L59.8643 55.449L59.9273 55.4884C61.8058 56.7285 64.0229 57.3579 66.2743 57.2902L66.4686 57.2847L68.3782 57.1984C68.6993 56.3731 68.8067 55.4804 68.6904 54.6028C68.9788 55.4347 69.2039 56.2872 69.3638 57.1529L77.9318 56.7637C78.4304 56.739 78.8995 56.521 79.2392 56.1561C79.5789 55.7912 79.7622 55.3083 79.7501 54.8104C79.6858 52.6374 78.7601 50.5786 77.1762 49.0858C75.5922 47.593 73.4794 46.7883 71.3014 46.8481Z" fill="#2F2E41"/>
<path d="M64.4146 44.7136C63.6346 45.6734 62.3821 46.0733 61.2567 46.5931C59.2711 47.53 57.5445 48.936 56.2267 50.6892C54.9088 52.4425 54.0395 54.49 53.694 56.6542C53.4288 58.4166 53.5216 60.2305 53.0726 61.954C52.6266 63.6774 51.4497 65.3891 49.7007 65.7355C48.5172 65.9718 47.3119 65.5473 46.1805 65.1266C45.5582 64.8973 44.9359 64.667 44.3136 64.4357C44.9097 62.8109 45.5049 61.1862 46.099 59.5615C45.1139 61.1068 43.9577 62.5367 42.6523 63.8242C40.4223 62.9995 38.1903 62.1749 35.9563 61.3503C41.391 61.2173 40.3143 55.9801 41.3801 50.6648C41.9659 47.744 47.6003 45.6182 48.6376 42.8257C49.198 41.3112 50.1814 39.9885 51.4717 39.0142C52.7619 38.04 54.3048 37.4549 55.9179 37.3283C57.531 37.2017 59.1467 37.5388 60.5738 38.2997C62.0008 39.0607 63.1795 40.2136 63.9703 41.6221C65.0986 42.0341 65.1802 43.7661 64.4146 44.7136Z" fill="#2F2E41"/>
<path d="M64.9579 48.2338C67.3976 48.2338 69.3753 46.2605 69.3753 43.8263C69.3753 41.3921 67.3976 39.4188 64.9579 39.4188C62.5183 39.4188 60.5405 41.3921 60.5405 43.8263C60.5405 46.2605 62.5183 48.2338 64.9579 48.2338Z" fill="#2F2E41"/>
</g>
<defs>
<clipPath id="clip0_35_4973">
<rect width="282" height="256" fill="white"/>
</clipPath>
</defs>
</svg>
